<?xml version="1.0" encoding="UTF-8" standalone="no"?>
<!-- Generator: Gravit.io -->
<svg xmlns="http://www.w3.org/2000/svg" xmlns:xlink="http://www.w3.org/1999/xlink" style="isolation:isolate" viewBox="540 200 747 532" width="747pt" height="532pt"><defs><clipPath id="_clipPath_AHTWqTjqSNkU4mHoKYJS7Z4FemPUh9ba"><rect x="540" y="200" width="747" height="532"/></clipPath></defs><g clip-path="url(#_clipPath_AHTWqTjqSNkU4mHoKYJS7Z4FemPUh9ba)"><g><mask id="_mask_AuUoZOhdBXwCRKW2pSYNywp1O1XyRUGr"><circle vector-effect="non-scaling-stroke" cx="894.5" cy="377.5" r="64.5" fill="white" stroke="none"/></mask><circle vector-effect="non-scaling-stroke" cx="894.5" cy="377.5" r="64.5" fill="none"/><circle vector-effect="non-scaling-stroke" cx="894.5" cy="377.5" r="64.5" fill="none" mask="url(#_mask_AuUoZOhdBXwCRKW2pSYNywp1O1XyRUGr)" stroke-width="10" stroke="rgb(0,0,0)" stroke-linejoin="miter" stroke-linecap="square" stroke-miterlimit="3"/><g clip-path="url(#_clipPath_ZxfH7ImciMOOOYzsIbxVYkm7uefkiiiJ)"><text transform="matrix(1,0,0,1,879.5,396.121)" style="font-family:'Open Sans';font-weight:700;font-size:48px;font-style:normal;fill:#000000;stroke:none;">1</text></g><defs><clipPath id="_clipPath_ZxfH7ImciMOOOYzsIbxVYkm7uefkiiiJ"><rect x="0" y="0" width="30" height="65.367" transform="matrix(1,0,0,1,879.5,344.816)"/></clipPath></defs></g><g><mask id="_mask_IBxjrRH7kLOSROuRnMusFlzCSrywGICD"><circle vector-effect="non-scaling-stroke" cx="604.5000000000001" cy="264.5" r="64.5" fill="white" stroke="none"/></mask><circle vector-effect="non-scaling-stroke" cx="604.5000000000001" cy="264.5" r="64.5" fill="none"/><circle vector-effect="non-scaling-stroke" cx="604.5000000000001" cy="264.5" r="64.5" fill="none" mask="url(#_mask_IBxjrRH7kLOSROuRnMusFlzCSrywGICD)" stroke-width="10" stroke="rgb(0,0,0)" stroke-linejoin="miter" stroke-linecap="square" stroke-miterlimit="3"/><g clip-path="url(#_clipPath_ENUxqHCvYWGUMp5jY3b2iw53O4c3vlIO)"><text transform="matrix(1,0,0,1,589.5,283.121)" style="font-family:'Open Sans';font-weight:700;font-size:48px;font-style:normal;fill:#000000;stroke:none;">2</text></g><defs><clipPath id="_clipPath_ENUxqHCvYWGUMp5jY3b2iw53O4c3vlIO"><rect x="0" y="0" width="30" height="65.367" transform="matrix(1,0,0,1,589.5,231.816)"/></clipPath></defs></g><g><mask id="_mask_UKAOrqy30hu1duhK1nd6bkmOB5jNH0tt"><circle vector-effect="non-scaling-stroke" cx="1222.5" cy="336.5" r="64.5" fill="white" stroke="none"/></mask><circle vector-effect="non-scaling-stroke" cx="1222.5" cy="336.5" r="64.5" fill="none"/><circle vector-effect="non-scaling-stroke" cx="1222.5" cy="336.5" r="64.5" fill="none" mask="url(#_mask_UKAOrqy30hu1duhK1nd6bkmOB5jNH0tt)" stroke-width="10" stroke="rgb(0,0,0)" stroke-linejoin="miter" stroke-linecap="square" stroke-miterlimit="3"/><g clip-path="url(#_clipPath_4sIRx3Li2DMjUeQkJBsE3wVo7Rq87ddI)"><text transform="matrix(1,0,0,1,1207.5,355.121)" style="font-family:'Open Sans';font-weight:700;font-size:48px;font-style:normal;fill:#000000;stroke:none;">5</text></g><defs><clipPath id="_clipPath_4sIRx3Li2DMjUeQkJBsE3wVo7Rq87ddI"><rect x="0" y="0" width="30" height="65.367" transform="matrix(1,0,0,1,1207.5,303.816)"/></clipPath></defs></g><g><mask id="_mask_iTtpVjLDl7XsUcv7oEGZNMoj1rAz7r1T"><circle vector-effect="non-scaling-stroke" cx="782.5" cy="667.5" r="64.5" fill="white" stroke="none"/></mask><circle vector-effect="non-scaling-stroke" cx="782.5" cy="667.5" r="64.5" fill="none"/><circle vector-effect="non-scaling-stroke" cx="782.5" cy="667.5" r="64.5" fill="none" mask="url(#_mask_iTtpVjLDl7XsUcv7oEGZNMoj1rAz7r1T)" stroke-width="10" stroke="rgb(0,0,0)" stroke-linejoin="miter" stroke-linecap="square" stroke-miterlimit="3"/><g clip-path="url(#_clipPath_0qf04c0Y0OsgX6han1q4cksybSd74CvL)"><text transform="matrix(1,0,0,1,767.5,686.121)" style="font-family:'Open Sans';font-weight:700;font-size:48px;font-style:normal;fill:#000000;stroke:none;">4</text></g><defs><clipPath id="_clipPath_0qf04c0Y0OsgX6han1q4cksybSd74CvL"><rect x="0" y="0" width="30" height="65.367" transform="matrix(1,0,0,1,767.5,634.816)"/></clipPath></defs></g><g><mask id="_mask_rejjIhne3VG701R70eL98EDvqYXiUMum"><circle vector-effect="non-scaling-stroke" cx="1119.5" cy="667.5" r="64.5" fill="white" stroke="none"/></mask><circle vector-effect="non-scaling-stroke" cx="1119.5" cy="667.5" r="64.5" fill="none"/><circle vector-effect="non-scaling-stroke" cx="1119.5" cy="667.5" r="64.5" fill="none" mask="url(#_mask_rejjIhne3VG701R70eL98EDvqYXiUMum)" stroke-width="10" stroke="rgb(0,0,0)" stroke-linejoin="miter" stroke-linecap="square" stroke-miterlimit="3"/><g clip-path="url(#_clipPath_6J1rMtVIjNsHmpnQg9ED1MwMTpRtNBqp)"><text transform="matrix(1,0,0,1,1104.5,686.121)" style="font-family:'Open Sans';font-weight:700;font-size:48px;font-style:normal;fill:#000000;stroke:none;">3</text></g><defs><clipPath id="_clipPath_6J1rMtVIjNsHmpnQg9ED1MwMTpRtNBqp"><rect x="0" y="0" width="30" height="65.367" transform="matrix(1,0,0,1,1104.5,634.816)"/></clipPath></defs></g><line x1="835" y1="356" x2="661" y2="293" vector-effect="non-scaling-stroke" stroke-width="5" stroke="rgb(0,0,0)" stroke-linejoin="miter" stroke-linecap="square" stroke-miterlimit="3"/><line x1="1058" y1="674" x2="846" y2="671" vector-effect="non-scaling-stroke" stroke-width="5" stroke="rgb(0,0,0)" stroke-linejoin="miter" stroke-linecap="square" stroke-miterlimit="3"/><line x1="1085" y1="615" x2="938" y2="420" vector-effect="non-scaling-stroke" stroke-width="5" stroke="rgb(0,0,0)" stroke-linejoin="miter" stroke-linecap="square" stroke-miterlimit="3"/><line x1="1141" y1="610" x2="1210" y2="397" vector-effect="non-scaling-stroke" stroke-width="5" stroke="rgb(0,0,0)" stroke-linejoin="miter" stroke-linecap="square" stroke-miterlimit="3"/></g></svg>